HIERARCHY
ROOT Hips
{
	OFFSET 0.00 0.00 0.00
	CHANNELS 6 Xposition Yposition Zposition Xrotation Yrotation Zrotation
	JOINT Spine
	{
		OFFSET 0.00000 4.88528 0.00000
		CHANNELS 3 Xrotation Yrotation Zrotation
		JOINT Head
		{
			OFFSET 0.00000 16.49416 0.00000
			CHANNELS 3 Xrotation Yrotation Zrotation
			End Site
			{
				OFFSET 0.00000 4.52755 0.00000
			}
		}
		JOINT LeftShoulder
		{
			OFFSET 0.00000 10.66345 0.00000
			CHANNELS 3 Xrotation Yrotation Zrotation
			JOINT LeftArm
			{
				OFFSET 7.53191 0.00000 0.00000
				CHANNELS 3 Xrotation Yrotation Zrotation
				JOINT LeftForeArm
				{
					OFFSET 10.22920 0.00000 0.00000
					CHANNELS 3 Yrotation Zrotation Xrotation
					JOINT LeftHand
					{
						OFFSET 8.67349 0.00000 0.00000
						CHANNELS 3 Xrotation Yrotation Zrotation
						JOINT LeftHandThumb1
						{
							OFFSET 0.00000 0.00000 0.00000
							CHANNELS 3 Xrotation Zrotation Yrotation
							End Site
							{
								OFFSET 0.00000 0.00000 3.93700
							}
						}
						End Site
						{
							OFFSET 3.93700 0.00000 0.00000
						}
					}
				}
			}
		}
		JOINT RightShoulder
		{
			OFFSET 0.00000 10.66345 0.00000
			CHANNELS 3 Xrotation Yrotation Zrotation
			JOINT RightArm
			{
				OFFSET -7.53191 0.00000 0.00000
				CHANNELS 3 Xrotation Yrotation Zrotation
				JOINT RightForeArm
				{
					OFFSET -10.22920 0.00000 0.00000
					CHANNELS 3 Yrotation Zrotation Xrotation
					JOINT RightHand
					{
						OFFSET -8.67349 0.00000 0.00000
						CHANNELS 3 Xrotation Yrotation Zrotation
						JOINT RightHandThumb1
						{
							OFFSET 0.00000 0.00000 0.00000
							CHANNELS 3 Xrotation Zrotation Yrotation
							End Site
							{
								OFFSET 0.00000 0.00000 3.93700
							}
						}
						End Site
						{
							OFFSET -3.93700 0.00000 0.00000
						}
					}
				}
			}
		}
	}
	JOINT LeftUpLeg
	{
		OFFSET 2.67219 0.00000 0.00000
		CHANNELS 3 Xrotation Yrotation Zrotation
		JOINT LeftLeg
		{
			OFFSET 0.00000 -16.26339 0.00000
			CHANNELS 3 Xrotation Yrotation Zrotation
			JOINT LeftFoot
			{
				OFFSET 0.00000 -14.32816 0.00000
				CHANNELS 3 Xrotation Yrotation Zrotation
				JOINT LeftToeBase
				{
					OFFSET 0.00000 -1.30219 4.85985
					CHANNELS 3 Xrotation Yrotation Zrotation
					End Site
					{
						OFFSET 0.00000 0.00000 2.95275
					}
				}
			}
		}
	}
	JOINT RightUpLeg
	{
		OFFSET -2.67219 0.00000 0.00000
		CHANNELS 3 Xrotation Yrotation Zrotation
		JOINT RightLeg
		{
			OFFSET 0.00000 -16.26339 0.00000
			CHANNELS 3 Xrotation Yrotation Zrotation
			JOINT RightFoot
			{
				OFFSET 0.00000 -14.32816 0.00000
				CHANNELS 3 Xrotation Yrotation Zrotation
				JOINT RightToeBase
				{
					OFFSET 0.00000 -1.30219 4.85985
					CHANNELS 3 Xrotation Yrotation Zrotation
					End Site
					{
						OFFSET 0.00000 0.00000 2.95275
					}
				}
			}
		}
	}
}
MOTION
Frames: 15
Frame Time: 0.008333
 39.3227 31.7737 -19.6132 47.5217 -52.9093 38.7627 -11.2787 -6.9303 1.4936 2.0162 -3.0089 3.2727 39.5770 19.7355 8.9265 -57.6940 -26.7340 -94.5377 -16.1086 -0.0000 -4.6155 -0.6990 -5.8356 -6.8425 33.1476 -0.0000 26.2537 3.5722 -2.9093 -15.9751 -18.2195 17.4902 93.6551 27.1608 0.0000 -0.4976 0.1665 10.5619 -0.9080 32.8623 0.0000 -24.3270 -19.2273 -6.2891 -1.6927 2.0851 0.0000 -0.0000 -8.7372 16.2100 -5.3990 -13.8102 -0.0000 0.0000 -51.6682 3.0225 5.7963 46.5022 -0.0000 0.0000 -5.0177 -18.1069 10.8199 -11.0544 0.0000 0.0000
 39.2660 31.7675 -19.5912 47.4633 -52.8839 38.6969 -11.1171 -6.9746 1.5323 1.9100 -3.0312 3.1889 39.4060 19.6628 9.0560 -57.7738 -26.8361 -94.6882 -16.1718 -0.0000 -4.5610 -0.6957 -5.7659 -6.8915 33.1476 -0.0000 26.2537 3.5878 -2.8474 -16.1610 -18.1907 17.5376 93.8804 27.2677 0.0000 -0.5589 0.2072 10.5524 -1.1310 32.8623 0.0000 -24.3270 -18.9734 -5.9845 -1.6400 1.8233 -0.0000 0.0000 -8.6665 15.8647 -5.6827 -13.7916 -0.0000 -0.0000 -51.6936 3.0063 5.8089 46.8018 0.0000 -0.0000 -5.5409 -18.0364 10.5065 -10.6744 0.0000 -0.0000
 39.2064 31.7621 -19.5689 47.4353 -52.8197 38.6823 -10.9990 -7.0265 1.5223 1.8023 -3.0436 3.1231 39.2418 19.6093 9.1849 -57.8414 -26.9232 -94.8265 -16.2799 -0.0000 -4.4351 -0.7126 -5.7287 -7.1029 33.1476 -0.0000 26.2537 3.5697 -2.7970 -16.2976 -18.1209 17.6273 94.0730 27.3755 0.0000 -0.7807 0.1419 10.6292 -0.7690 32.8623 0.0000 -24.3270 -18.7488 -5.7642 -1.6123 1.5409 -0.0000 0.0000 -8.5338 15.5538 -5.9335 -13.8278 0.0000 0.0000 -51.7205 2.9739 5.7871 47.0477 -0.0000 -0.0000 -6.0227 -17.9389 10.1505 -10.6263 -0.0000 -0.0000
 39.1392 31.7535 -19.5483 47.3442 -52.7331 38.6325 -10.8623 -7.0721 1.4797 1.6200 -3.1084 3.0592 39.0681 19.5564 9.3245 -57.9474 -27.0338 -94.9692 -16.3751 -0.0000 -4.3988 -0.6803 -5.5372 -7.0149 33.1476 -0.0000 26.2537 3.5323 -2.8159 -16.4748 -18.0887 17.6863 94.3582 27.3950 0.0000 -0.8466 0.1157 10.7216 -0.6219 32.8623 0.0000 -24.3270 -18.4852 -5.5821 -1.6108 1.2269 0.0000 -0.0000 -8.4572 15.2937 -6.1675 -13.8248 -0.0000 -0.0000 -51.6950 2.9634 5.7492 47.2672 0.0000 -0.0000 -6.4458 -17.8466 9.8255 -10.3204 -0.0000 -0.0000
 39.0700 31.7426 -19.5246 47.2471 -52.6777 38.5373 -10.6980 -7.1730 1.4893 1.4487 -3.1007 3.0069 38.8751 19.5265 9.4629 -58.0003 -27.1244 -95.1237 -16.4931 -0.0000 -4.4538 -0.7126 -5.5778 -7.2925 33.1476 -0.0000 26.2537 3.4968 -2.7428 -16.6213 -17.9926 17.7646 94.5429 27.5073 0.0000 -0.8176 0.0953 10.6621 -0.5152 32.8623 0.0000 -24.3270 -18.1722 -5.4727 -1.5791 0.8711 -0.0000 0.0000 -8.4187 15.1554 -6.3015 -13.7651 0.0000 -0.0000 -51.6124 2.9066 5.7417 47.4370 0.0000 -0.0000 -6.8004 -17.7389 9.4373 -10.2174 0.0000 0.0000
 38.9997 31.7358 -19.5022 47.2654 -52.4837 38.5505 -10.7016 -7.3156 1.4604 1.2849 -3.1039 2.9730 38.7679 19.4993 9.5687 -58.1101 -27.2597 -95.2543 -16.6419 -0.0000 -4.4700 -0.7397 -5.6638 -7.4536 33.1476 -0.0000 26.2537 3.5183 -2.7152 -16.7566 -17.9645 17.8890 94.7263 27.5470 0.0000 -0.8233 0.1008 10.7098 -0.5422 32.8623 0.0000 -24.3270 -18.0256 -5.5354 -1.5768 0.5454 0.0000 -0.0000 -8.3049 15.0873 -6.3964 -13.7510 -0.0000 0.0000 -51.6268 2.8206 5.6746 47.5276 0.0000 -0.0000 -7.0119 -17.6420 9.1051 -10.3421 -0.0000 0.0000
 38.9242 31.7242 -19.4747 47.2065 -52.3073 38.5448 -10.6611 -7.4898 1.3843 1.0895 -3.0729 2.9365 38.6320 19.4827 9.6717 -58.1875 -27.3959 -95.3775 -16.8099 -0.0000 -4.5815 -0.7051 -5.5472 -7.2553 33.1476 -0.0000 26.2537 3.4821 -2.6621 -16.8718 -17.8683 18.0140 94.8971 27.6025 0.0000 -0.6943 0.0484 10.7103 -0.2607 32.8623 0.0000 -24.3270 -17.8179 -5.6423 -1.6247 0.2229 -0.0000 0.0000 -8.2180 15.0485 -6.4514 -13.7176 0.0000 -0.0000 -51.5644 2.7612 5.5681 47.5961 0.0000 0.0000 -7.1615 -17.4696 8.5623 -10.8213 0.0000 0.0000
 38.8462 31.7096 -19.4460 47.1085 -52.1759 38.4969 -10.5455 -7.6318 1.3259 0.8328 -3.0473 2.9109 38.5355 19.5034 9.7337 -58.4047 -27.5996 -95.5329 -16.9183 -0.0000 -4.6569 -0.7405 -5.6640 -7.4613 33.1476 -0.0000 26.2537 3.4624 -2.6397 -16.9516 -17.8110 18.2108 95.0104 27.6625 0.0000 -0.5502 0.0118 10.7567 -0.0629 32.8623 0.0000 -24.3270 -17.5917 -5.6616 -1.6733 -0.0239 -0.0000 0.0000 -8.2602 15.0277 -6.4750 -13.5865 0.0000 -0.0000 -51.4209 2.6940 5.4944 47.6047 0.0000 0.0000 -7.2914 -17.3113 7.8975 -11.3579 0.0000 -0.0000
 38.7634 31.6967 -19.4193 47.0989 -51.9189 38.5051 -10.5811 -7.8091 1.2567 0.5862 -3.0693 2.9175 38.4105 19.4691 9.8351 -58.5087 -27.7750 -95.6432 -17.1113 -0.0000 -4.7039 -0.7410 -5.6775 -7.4487 33.1476 -0.0000 26.2537 3.4606 -2.6583 -17.0060 -17.7044 18.3280 95.1180 27.7543 0.0000 -0.2195 0.0541 10.6962 -0.2914 32.8623 0.0000 -24.3270 -17.5120 -5.7192 -1.7171 -0.2168 -0.0000 -0.0000 -8.2677 14.9365 -6.5005 -13.4404 0.0000 0.0000 -51.3749 2.6080 5.3736 47.5975 -0.0000 -0.0000 -7.2270 -17.0547 7.4401 -12.1047 0.0000 0.0000
 38.6789 31.6818 -19.3919 47.0424 -51.6563 38.4577 -10.5789 -8.0432 1.2053 0.2993 -3.0318 2.9344 38.3537 19.4978 9.8667 -58.7304 -27.9615 -95.7742 -17.2693 -0.0000 -4.6945 -0.7225 -5.6385 -7.3142 33.1476 -0.0000 26.2537 3.5048 -2.6423 -17.0295 -17.6279 18.4051 95.1676 27.8473 0.0000 0.0186 0.0206 10.6258 -0.1119 32.8623 0.0000 -24.3270 -17.4401 -5.8360 -1.7452 -0.3379 -0.0000 0.0000 -8.3514 14.8662 -6.5857 -13.3223 0.0000 0.0000 -51.2682 2.4944 5.2603 47.4994 0.0000 -0.0000 -6.9878 -16.7612 6.6853 -13.6620 0.0000 0.0000
 38.5890 31.6651 -19.3630 47.0287 -51.3842 38.4816 -10.6284 -8.2664 1.0945 0.0302 -2.9805 2.9975 38.2719 19.5204 9.9435 -58.9142 -28.1691 -95.9036 -17.4526 -0.0000 -4.7184 -0.7255 -5.6478 -7.3322 33.1476 -0.0000 26.2537 3.5696 -2.6422 -17.0067 -17.5618 18.4787 95.1995 27.8904 0.0000 0.4112 -0.0457 10.7037 0.2461 32.8623 0.0000 -24.3270 -17.4173 -5.8562 -1.8029 -0.3813 -0.0000 -0.0000 -8.4667 14.7154 -6.7685 -13.2305 -0.0000 0.0000 -51.1624 2.4527 5.1462 47.3875 -0.0000 -0.0000 -6.8430 -16.4445 6.0140 -14.9512 -0.0000 -0.0000
 38.4912 31.6484 -19.3363 46.9904 -51.1500 38.4574 -10.6324 -8.4330 0.9925 -0.2563 -2.9714 3.1180 38.1850 19.5651 9.9819 -59.2006 -28.4733 -96.0426 -17.5480 -0.0000 -4.6632 -0.7356 -5.7035 -7.3618 33.1476 -0.0000 26.2537 3.6466 -2.6564 -16.9298 -17.4599 18.5643 95.1749 27.9456 0.0000 0.6864 -0.0367 10.7133 0.1975 32.8623 0.0000 -24.3270 -17.3697 -5.9101 -1.8083 -0.3741 0.0000 -0.0000 -8.6225 14.5494 -6.9348 -13.1243 0.0000 -0.0000 -50.9951 2.4003 5.0750 47.2434 0.0000 -0.0000 -6.8628 -16.1124 5.2971 -16.2984 0.0000 0.0000
 38.3926 31.6296 -19.3084 47.0048 -50.9294 38.4935 -10.6546 -8.5797 0.8889 -0.5497 -2.9598 3.2076 38.0148 19.5479 10.0945 -59.3149 -28.7135 -96.1460 -17.7441 -0.0000 -4.7153 -0.7073 -5.6165 -7.1889 33.1476 -0.0000 26.2537 3.7189 -2.6762 -16.8603 -17.3655 18.6029 95.1554 27.9818 0.0000 0.8974 -0.0708 10.6535 0.3830 32.8623 0.0000 -24.3270 -17.3711 -5.8737 -1.8283 -0.2844 -0.0000 0.0000 -8.8636 14.3779 -7.2229 -12.8268 0.0000 0.0000 -50.8318 2.4004 5.0127 47.0713 0.0000 0.0000 -7.0434 -15.9881 4.8238 -17.2376 0.0000 -0.0000
 38.2932 31.6130 -19.2837 47.0222 -50.6398 38.4681 -10.6973 -8.7917 0.8495 -0.8852 -2.9568 3.2855 37.9088 19.5616 10.1659 -59.5464 -28.9486 -96.2704 -17.8696 -0.0000 -4.6307 -0.7053 -5.6512 -7.1255 33.1476 -0.0000 26.2537 3.7855 -2.6898 -16.7921 -17.2700 18.6102 95.1226 27.9502 0.0000 1.0198 -0.0889 10.7154 0.4783 32.8623 0.0000 -24.3270 -17.4626 -5.9369 -1.7950 -0.0913 0.0000 -0.0000 -9.1555 14.1823 -7.4581 -12.4913 -0.0000 -0.0000 -50.7008 2.2583 4.9269 46.9032 -0.0000 -0.0000 -7.3491 -15.8839 4.4714 -17.8469 -0.0000 0.0000
 38.1897 31.5975 -19.2538 47.0962 -50.4140 38.5948 -10.7582 -8.8953 0.6904 -1.1914 -2.9793 3.4081 37.7817 19.5570 10.2560 -59.7577 -29.2198 -96.3621 -17.9960 -0.0000 -4.5076 -0.7226 -5.6630 -7.2840 33.1476 -0.0000 26.2537 3.8802 -2.7328 -16.6960 -17.2113 18.5370 95.1090 27.8706 0.0000 1.0858 -0.1308 10.6034 0.7107 32.8623 0.0000 -24.3270 -17.5250 -5.9285 -1.8508 0.0532 -0.0000 0.0000 -9.3023 14.0119 -7.6150 -12.5353 0.0000 -0.0000 -50.5695 2.2669 4.8295 46.7777 0.0000 -0.0000 -7.7216 -15.8058 4.2965 -18.1604 0.0000 0.0000
